#N canvas 32 102 1270 594 10;
#X obj 1086 410 table MAIN 2.88e+06;
#X obj 14 -38 adc~;
#X obj 358 446 dac~;
#X obj 13 90 tabwrite~ MAIN;
#X obj 42 53 bng 15 250 50 0 empty empty empty 17 7 0 10 -262144 -1
-1;
#X obj 697 262 tabread4~ MAIN;
#X obj 697 212 phasor~;
#X obj 698 239 *~ 2.88e+06;
#X obj 382 347 *~ 0.9;
#X floatatom 427 211 0 0 120 0 - - -;
#X text 449 212 level \, dB;
#X floatatom 451 239 0 0 100 0 - - -;
#X text 485 240 liveness \, 0-100;
#X floatatom 474 267 4 0 5000 0 - - -, f 4;
#X floatatom 498 293 0 0 100 0 - - -;
#X text 501 267 crossover frequency \, Hz.;
#X text 521 294 HF damping \, percent;
#X obj 697 117 osc~;
#X floatatom 697 72 5 0 0 0 - - -, f 5;
#X obj 698 188 *~ 0.001;
#X obj 697 95 * 0.001;
#X floatatom 743 144 5 0 0 0 - - -, f 5;
#X obj 743 165 * 0.001;
#X obj 381 326 rev3~ 100 99 15000 2;
#X obj 885 234 tabread4~ MAIN;
#X obj 885 184 phasor~;
#X obj 886 211 *~ 2.88e+06;
#X obj 885 119 osc~;
#X floatatom 889 50 5 0 0 0 - - -, f 5;
#X obj 886 140 *~ 0.001;
#X obj 885 81 * 0.001;
#X floatatom 966 78 5 0 0 0 - - -, f 5;
#X obj 962 110 * 0.001;
#X obj 1095 232 tabread4~ MAIN;
#X obj 1095 182 phasor~;
#X obj 1096 209 *~ 2.88e+06;
#X obj 1095 117 osc~;
#X floatatom 1099 48 5 0 0 0 - - -, f 5;
#X obj 1096 138 *~ 0.001;
#X obj 1095 79 * 0.001;
#X floatatom 1176 76 5 0 0 0 - - -, f 5;
#X obj 1172 108 * 0.001;
#X obj 231 280 vd~ DELAY-1;
#X obj 474 159 delwrite~ DELAY-1 20000;
#X obj 1094 343 throw~ FromTable;
#X obj 888 396 throw~ FromTable;
#X obj 696 436 throw~ FromTable;
#X obj 358 65 catch~ FromTable;
#X obj 531 351 vsl 15 128 0 127 0 0 empty empty empty 0 -9 0 10 -262144
-1 -1 12300 1;
#X obj 531 487 / 127;
#X obj 531 508 lop~ 3;
#X obj 359 383 *~;
#X obj 737 342 osc~;
#X floatatom 737 297 5 0 0 0 - - -, f 5;
#X obj 737 320 * 0.001;
#X obj 697 331 *~;
#X obj 927 330 osc~;
#X floatatom 927 285 5 0 0 0 - - -, f 5;
#X obj 927 308 * 0.001;
#X obj 887 319 *~;
#X obj 1134 309 osc~;
#X floatatom 1134 264 5 0 0 0 - - -, f 5;
#X obj 1134 287 * 0.001;
#X obj 1094 298 *~;
#X obj 601 -43 vsl 15 128 0 127 0 0 empty empty empty 0 -9 0 10 -262144
-1 -1 100 1;
#X obj 601 93 / 127;
#X obj 601 114 lop~ 3;
#X obj 474 122 *~;
#X obj 212 58 env~;
#X floatatom 212 79 5 0 0 0 - - -, f 5;
#X obj 235 189 osc~;
#X floatatom 235 144 5 0 0 0 - - -, f 5;
#X obj 235 167 * 0.001;
#X floatatom 275 208 5 0 0 0 - - -, f 5;
#X obj 236 230 *~ 15000;
#X obj 126 325 throw~ FromDelay;
#X obj 480 52 catch~ FromDelay;
#X obj 131 268 vd~ DELAY-1;
#X obj 135 177 osc~;
#X floatatom 135 132 5 0 0 0 - - -, f 5;
#X obj 135 155 * 0.001;
#X floatatom 175 196 5 0 0 0 - - -, f 5;
#X obj 136 218 *~ 15000;
#X obj 129 52 timer;
#X obj 91 -20 tgl 15 0 empty empty empty 17 7 0 10 -262144 -1 -1 0
1;
#X obj 129 76 * 48;
#X obj 129 97 s TAMANHO;
#X obj 761 216 r TAMANHO;
#X obj 949 184 r TAMANHO;
#X obj 1156 179 r TAMANHO;
#X obj 91 0 sel 1 0;
#X obj 32 142 print Tamanho;
#X msg 70 48 stop;
#X msg 964 447 \; MAIN const 0;
#X connect 1 0 3 0;
#X connect 4 0 3 0;
#X connect 5 0 55 0;
#X connect 6 0 7 0;
#X connect 7 0 5 0;
#X connect 9 0 23 2;
#X connect 11 0 23 3;
#X connect 13 0 23 4;
#X connect 14 0 23 5;
#X connect 17 0 19 0;
#X connect 18 0 20 0;
#X connect 19 0 6 0;
#X connect 20 0 17 0;
#X connect 21 0 22 0;
#X connect 22 0 19 1;
#X connect 23 0 8 0;
#X connect 24 0 59 0;
#X connect 25 0 26 0;
#X connect 26 0 24 0;
#X connect 27 0 29 0;
#X connect 28 0 30 0;
#X connect 29 0 25 0;
#X connect 30 0 27 0;
#X connect 31 0 32 0;
#X connect 32 0 29 1;
#X connect 33 0 63 0;
#X connect 34 0 35 0;
#X connect 35 0 33 0;
#X connect 36 0 38 0;
#X connect 37 0 39 0;
#X connect 38 0 34 0;
#X connect 39 0 36 0;
#X connect 40 0 41 0;
#X connect 41 0 38 1;
#X connect 42 0 75 0;
#X connect 47 0 67 0;
#X connect 47 0 51 0;
#X connect 47 0 23 0;
#X connect 48 0 49 0;
#X connect 49 0 50 0;
#X connect 50 0 51 1;
#X connect 51 0 2 1;
#X connect 52 0 55 1;
#X connect 53 0 54 0;
#X connect 54 0 52 0;
#X connect 55 0 46 0;
#X connect 56 0 59 1;
#X connect 57 0 58 0;
#X connect 58 0 56 0;
#X connect 60 0 63 1;
#X connect 61 0 62 0;
#X connect 62 0 60 0;
#X connect 64 0 65 0;
#X connect 65 0 66 0;
#X connect 66 0 67 1;
#X connect 67 0 43 0;
#X connect 68 0 69 0;
#X connect 70 0 74 0;
#X connect 71 0 72 0;
#X connect 72 0 70 0;
#X connect 73 0 74 1;
#X connect 74 0 42 0;
#X connect 76 0 67 0;
#X connect 76 0 23 0;
#X connect 77 0 75 0;
#X connect 78 0 82 0;
#X connect 79 0 80 0;
#X connect 80 0 78 0;
#X connect 81 0 82 1;
#X connect 82 0 77 0;
#X connect 83 0 85 0;
#X connect 83 0 91 0;
#X connect 84 0 90 0;
#X connect 85 0 86 0;
#X connect 87 0 7 1;
#X connect 88 0 26 1;
#X connect 89 0 35 1;
#X connect 90 0 83 0;
#X connect 90 0 4 0;
#X connect 90 1 83 1;
#X connect 90 1 92 0;
#X connect 92 0 3 0;
